HIERARCHY
ROOT Hips
{
	OFFSET 0.000000 103.266502 0.000000
	CHANNELS 6 Xposition Yposition Zposition Xrotation Yrotation Zrotation 
	JOINT Spine
	{
		OFFSET -0.002400 12.777504 0.315300
		CHANNELS 3 Xrotation Yrotation Zrotation
		JOINT Spine1
		{
			OFFSET -0.002067 5.816869 0.032633
			CHANNELS 3 Xrotation Yrotation Zrotation
			JOINT Spine1_split
			{
				OFFSET -0.002067 5.816869 0.032633
				CHANNELS 3 Xrotation Yrotation Zrotation
				JOINT Spine2
				{
					OFFSET -0.002067 5.816869 0.032633
					CHANNELS 3 Xrotation Yrotation Zrotation
					JOINT Neck
					{
						OFFSET -0.003700 21.199493 -0.826900
						CHANNELS 3 Xrotation Yrotation Zrotation
						JOINT Head
						{
							OFFSET 0.000000 20.442200 4.834800
							CHANNELS 3 Xrotation Yrotation Zrotation
							JOINT HeadTop_End
							{
								OFFSET 0.000000 34.668396 4.968400
								CHANNELS 3 Xrotation Yrotation Zrotation
								End Site
								{
									OFFSET 0.000000 0.000000 0.000000
								}
							}
						}
					}
					JOINT LeftShoulder
					{
						OFFSET 3.288150 8.794197 -1.372250
						CHANNELS 3 Xrotation Yrotation Zrotation
						JOINT LeftShoulder_split
						{
							OFFSET 3.288150 8.794197 -1.372250
							CHANNELS 3 Xrotation Yrotation Zrotation
							JOINT LeftArm
							{
								OFFSET 11.953299 -2.279007 -0.146200
								CHANNELS 3 Xrotation Yrotation Zrotation
								JOINT LeftForeArm
								{
									OFFSET 18.448900 0.000000 0.000000
									CHANNELS 3 Xrotation Yrotation Zrotation
									JOINT LeftHand
									{
										OFFSET 29.527798 0.000000 0.000000
										CHANNELS 3 Xrotation Yrotation Zrotation
										JOINT LeftHandThumb1
										{
											OFFSET 10.739754 -2.369614 9.225399
											CHANNELS 3 Xrotation Yrotation Zrotation
											JOINT LeftHandThumb2
											{
												OFFSET 4.926170 -2.844131 2.844125
												CHANNELS 3 Xrotation Yrotation Zrotation
												JOINT LeftHandThumb3
												{
													OFFSET 4.614891 -2.664413 2.664409
													CHANNELS 3 Xrotation Yrotation Zrotation
													JOINT LeftHandThumb4
													{
														OFFSET 4.432465 -2.559082 2.559083
														CHANNELS 3 Xrotation Yrotation Zrotation
														End Site
														{
															OFFSET 0.000000 0.000000 0.000000
														}
													}
												}
											}
										}
										JOINT LeftHandIndex1
										{
											OFFSET 26.467674 0.187653 6.405298
											CHANNELS 3 Xrotation Yrotation Zrotation
											JOINT LeftHandIndex2
											{
												OFFSET 8.792900 0.000000 0.000000
												CHANNELS 3 Xrotation Yrotation Zrotation
												JOINT LeftHandIndex3
												{
													OFFSET 10.075203 0.000000 0.000000
													CHANNELS 3 Xrotation Yrotation Zrotation
													End Site
													{
														OFFSET 0.000000 0.000000 0.000000
													}
												}
											}
										}
										JOINT LeftHandMiddle1
										{
											OFFSET 25.764404 0.000000 0.000000
											CHANNELS 3 Xrotation Yrotation Zrotation
											JOINT LeftHandMiddle2
											{
												OFFSET 9.393974 0.000000 0.000000
												CHANNELS 3 Xrotation Yrotation Zrotation
												JOINT LeftHandMiddle3
												{
													OFFSET 10.771950 0.000000 0.000000
													CHANNELS 3 Xrotation Yrotation Zrotation
													End Site
													{
														OFFSET 0.000000 0.000000 0.000000
													}
												}
											}
										}
										JOINT LeftHandRing1
										{
											OFFSET 24.660927 0.144547 -6.225808
											CHANNELS 3 Xrotation Yrotation Zrotation
											JOINT LeftHandRing2
											{
												OFFSET 9.393799 0.000000 0.000000
												CHANNELS 3 Xrotation Yrotation Zrotation
												JOINT LeftHandRing3
												{
													OFFSET 9.928497 0.000000 0.000000
													CHANNELS 3 Xrotation Yrotation Zrotation
													End Site
													{
														OFFSET 0.000000 0.000000 0.000000
													}
												}
											}
										}
										JOINT LeftHandPinky1
										{
											OFFSET 23.655350 0.125290 -12.815412
											CHANNELS 3 Xrotation Yrotation Zrotation
											JOINT LeftHandPinky2
											{
												OFFSET 8.425102 0.000000 0.000000
												CHANNELS 3 Xrotation Yrotation Zrotation
												JOINT LeftHandPinky3
												{
													OFFSET 8.147003 0.000000 0.000000
													CHANNELS 3 Xrotation Yrotation Zrotation
													End Site
													{
														OFFSET 0.000000 0.000000 0.000000
													}
												}
											}
										}
									}
								}
							}
						}
					}
					JOINT RightShoulder
					{
						OFFSET -3.249400 8.794197 -1.372250
						CHANNELS 3 Xrotation Yrotation Zrotation
						JOINT RightShoulder_split
						{
							OFFSET -3.249400 8.794197 -1.372250
							CHANNELS 3 Xrotation Yrotation Zrotation
							JOINT RightArm
							{
								OFFSET -11.953299 -2.279007 -0.146200
								CHANNELS 3 Xrotation Yrotation Zrotation
								JOINT RightForeArm
								{
									OFFSET -18.448900 0.000000 0.000000
									CHANNELS 3 Xrotation Yrotation Zrotation
									JOINT RightHand
									{
										OFFSET -29.527802 0.000000 0.000000
										CHANNELS 3 Xrotation Yrotation Zrotation
										JOINT RightHandThumb1
										{
											OFFSET -10.739754 -2.369614 9.225399
											CHANNELS 3 Xrotation Yrotation Zrotation
											JOINT RightHandThumb2
											{
												OFFSET -4.926170 -2.844131 2.844125
												CHANNELS 3 Xrotation Yrotation Zrotation
												JOINT RightHandThumb3
												{
													OFFSET -4.614891 -2.664413 2.664409
													CHANNELS 3 Xrotation Yrotation Zrotation
													JOINT RightHandThumb4
													{
														OFFSET -4.432465 -2.559082 2.559083
														CHANNELS 3 Xrotation Yrotation Zrotation
														End Site
														{
															OFFSET 0.000000 0.000000 0.000000
														}
													}
												}
											}
										}
										JOINT RightHandIndex1
										{
											OFFSET -26.467674 0.187653 6.405298
											CHANNELS 3 Xrotation Yrotation Zrotation
											JOINT RightHandIndex2
											{
												OFFSET -8.792900 0.000000 0.000000
												CHANNELS 3 Xrotation Yrotation Zrotation
												JOINT RightHandIndex3
												{
													OFFSET -10.075203 0.000000 0.000000
													CHANNELS 3 Xrotation Yrotation Zrotation
													End Site
													{
														OFFSET 0.000000 0.000000 0.000000
													}
												}
											}
										}
										JOINT RightHandMiddle1
										{
											OFFSET -25.764404 0.000000 0.000000
											CHANNELS 3 Xrotation Yrotation Zrotation
											JOINT RightHandMiddle2
											{
												OFFSET -9.393974 0.000000 0.000000
												CHANNELS 3 Xrotation Yrotation Zrotation
												JOINT RightHandMiddle3
												{
													OFFSET -10.771950 0.000000 0.000000
													CHANNELS 3 Xrotation Yrotation Zrotation
													End Site
													{
														OFFSET 0.000000 0.000000 0.000000
													}
												}
											}
										}
										JOINT RightHandRing1
										{
											OFFSET -24.660927 0.144547 -6.225808
											CHANNELS 3 Xrotation Yrotation Zrotation
											JOINT RightHandRing2
											{
												OFFSET -9.393799 0.000000 0.000000
												CHANNELS 3 Xrotation Yrotation Zrotation
												JOINT RightHandRing3
												{
													OFFSET -9.928497 0.000000 0.000000
													CHANNELS 3 Xrotation Yrotation Zrotation
													End Site
													{
														OFFSET 0.000000 0.000000 0.000000
													}
												}
											}
										}
										JOINT RightHandPinky1
										{
											OFFSET -23.655350 0.125290 -12.815412
											CHANNELS 3 Xrotation Yrotation Zrotation
											JOINT RightHandPinky2
											{
												OFFSET -8.425102 0.000000 0.000000
												CHANNELS 3 Xrotation Yrotation Zrotation
												JOINT RightHandPinky3
												{
													OFFSET -8.147003 0.000000 0.000000
													CHANNELS 3 Xrotation Yrotation Zrotation
													End Site
													{
														OFFSET 0.000000 0.000000 0.000000
													}
												}
											}
										}
									}
								}
							}
						}
					}
				}
			}
		}
	}
	JOINT LeftUpLeg
	{
		OFFSET 11.394100 -6.187798 -0.413800
		CHANNELS 3 Xrotation Yrotation Zrotation
		JOINT LeftLeg
		{
			OFFSET 0.430247 -32.302673 3.732800
			CHANNELS 3 Xrotation Yrotation Zrotation
			JOINT LeftFoot
			{
				OFFSET -0.430247 -48.264931 -6.423300
				CHANNELS 3 Xrotation Yrotation Zrotation
				JOINT LeftToeBase
				{
					OFFSET 4.230900 -16.068199 23.438400
					CHANNELS 3 Xrotation Yrotation Zrotation
					JOINT LeftToe_End
					{
						OFFSET 4.510700 0.695400 19.974600
						CHANNELS 3 Xrotation Yrotation Zrotation
						End Site
						{
							OFFSET 0.000000 0.000000 0.000000
						}
					}
				}
			}
		}
	}
	JOINT RightUpLeg
	{
		OFFSET -11.333700 -6.187798 -0.413800
		CHANNELS 3 Xrotation Yrotation Zrotation
		JOINT RightLeg
		{
			OFFSET -0.430392 -32.302628 3.733000
			CHANNELS 3 Xrotation Yrotation Zrotation
			JOINT RightFoot
			{
				OFFSET 0.430392 -48.264973 -6.423500
				CHANNELS 3 Xrotation Yrotation Zrotation
				JOINT RightToeBase
				{
					OFFSET -4.230900 -16.068199 23.438400
					CHANNELS 3 Xrotation Yrotation Zrotation
					JOINT RightToe_End
					{
						OFFSET -4.510700 0.695400 19.974600
						CHANNELS 3 Xrotation Yrotation Zrotation
						End Site
						{
							OFFSET 0.000000 0.000000 0.000000
						}
					}
				}
			}
		}
	}
}
MOTION
Frames: 6
Frame Time: 0.016667
-0.360952 138.518524 1.471596 5.862405 -20.253545 11.327104 34.339206 -6.341502 -11.326656 -1.919974 -0.704208 -1.068981 0.000000 0.000000 0.000000 -1.861951 -0.963998 -0.958725 -27.161325 7.980848 9.093855 17.861669 13.973909 -17.635111 -0.000001 -0.000000 -0.000000 14.342941 -28.036217 31.312982 0.000000 0.000000 0.000000 -54.053308 10.158302 9.211020 -39.508700 -62.618341 -18.464472 0.677887 -3.694924 5.616514 -4.212051 -7.549090 8.222290 2.840614 18.398119 -2.239073 5.152346 25.924820 13.300385 -0.000001 0.000002 0.000000 13.557849 -2.400533 2.442063 -0.158533 0.312406 -41.706867 -0.000000 -0.000001 -0.000000 8.872537 -0.946704 -8.698848 0.333514 0.702977 -39.129785 0.000000 0.000001 0.000001 6.417767 2.640971 -21.662585 0.073913 0.361671 -38.094007 -0.000000 0.000000 -0.000001 -5.773320 7.351759 -20.511939 0.248338 0.299203 -53.404006 0.000001 -0.000002 -0.000003 3.778681 7.559635 -24.581262 0.000000 0.000000 0.000000 -73.831428 -14.404394 -24.052238 -51.826205 60.836700 47.494929 9.141608 7.948715 -22.976008 -13.975078 13.836806 -0.527697 10.118333 -39.599449 -4.011418 6.542911 -35.207105 -15.255704 0.000000 0.000001 -0.000000 11.271637 3.607143 -9.674706 -0.308891 -0.132931 59.230178 -0.000003 0.000000 -0.000000 5.407491 -9.717471 -10.964797 0.477109 -0.644344 52.079885 -0.000001 -0.000001 0.000001 4.999329 -19.199903 -5.805066 0.293133 -0.312908 63.639768 0.000000 0.000002 0.000000 10.206687 -27.451355 11.592843 0.317947 -0.173599 82.243879 0.000001 0.000001 -0.000002 -96.793500 -7.642366 26.002882 53.922397 -6.067416 -13.978130 20.230296 -7.390201 9.429002 -0.331953 0.927819 -0.306370 -0.000001 0.000000 -0.000001 -122.884884 0.436662 11.889493 125.687311 -6.993666 -2.320746 53.804706 0.497961 -5.472608 -0.332340 -0.927795 0.306423 0.000002 -0.000001 0.000000 
-0.439819 138.393219 6.418137 5.499774 -20.211283 11.105051 34.077289 -6.615838 -11.197830 -1.705512 -0.826078 -1.172774 0.000000 0.000000 0.000000 -1.718711 -1.101922 -0.901943 -26.754457 7.923679 9.300323 17.616748 14.580977 -17.741030 0.000003 0.000000 -0.000000 13.329950 -28.376420 28.717339 0.000000 0.000000 0.000000 -55.448569 15.227864 10.991226 -68.123706 -71.308152 -47.693018 11.233190 4.906543 -1.251261 -4.209884 -7.549289 8.222469 2.840276 18.399234 -2.238930 5.151157 25.910908 13.294528 -0.000002 0.000002 -0.000003 13.557229 -2.399551 2.530733 -0.158560 0.312344 -41.632281 0.000000 -0.000000 -0.000000 8.872449 -0.946811 -8.589848 0.333096 0.702613 -39.040477 0.000000 0.000001 0.000001 6.418080 2.640007 -21.526852 0.073516 0.361155 -37.984922 -0.000000 -0.000001 0.000000 -5.768893 7.348700 -20.334962 0.247752 0.298810 -53.267303 -0.000000 0.000003 -0.000005 3.694501 8.731537 -22.067272 0.000000 0.000000 0.000000 -77.217659 -16.836297 -27.351911 -55.432381 62.389803 51.618075 16.842398 16.542153 -19.530861 -13.852522 13.688657 -0.611931 9.965730 -39.155180 -3.888439 6.510286 -34.644434 -15.024721 -0.000002 -0.000000 -0.000000 11.276140 3.678403 -9.745152 -0.306497 -0.132130 58.914650 -0.000001 0.000000 0.000001 5.433452 -9.621380 -11.002376 0.474230 -0.645758 51.742139 0.000001 -0.000001 -0.000002 5.046099 -19.088488 -5.820349 0.290792 -0.313048 63.102301 -0.000000 -0.000002 0.000000 10.132925 -27.291952 11.300274 0.315809 -0.176095 81.291293 0.000000 0.000001 -0.000001 -94.322638 -6.473872 24.597581 51.615354 -6.363464 -13.623668 20.898687 -6.646236 9.143804 -0.332159 0.927333 -0.306089 -0.000000 0.000000 0.000000 -123.164976 0.319709 12.071898 122.964510 -9.500629 -2.545169 53.810283 0.981112 -2.789167 -0.332180 -0.927360 0.306095 -0.000000 0.000000 0.000001 
-0.628473 138.124161 11.307669 5.137261 -20.349606 11.007885 33.232531 -6.804762 -10.955944 -1.359157 -0.996964 -1.581732 0.000000 0.000000 0.000000 -1.480012 -1.199179 -0.910620 -25.746980 7.766828 9.873795 17.083722 15.326012 -18.187474 -0.000002 -0.000000 0.000000 11.862446 -27.977712 26.191841 0.000000 0.000000 0.000000 -55.866016 16.656009 11.417594 -90.273784 -72.339995 -70.563593 19.159073 8.441120 -6.769422 -4.203530 -7.550152 8.223042 2.839340 18.402345 -2.238586 5.147700 25.871698 13.277952 -0.000001 -0.000002 0.000001 13.555471 -2.396749 2.784497 -0.158634 0.312159 -41.417946 -0.000000 -0.000000 -0.000000 8.872078 -0.947119 -8.279685 0.332002 0.701612 -38.784830 -0.000000 -0.000000 0.000000 6.418730 2.637044 -21.143303 0.072411 0.359698 -37.674237 0.000001 -0.000001 0.000004 -5.757116 7.340633 -19.839316 0.246140 0.297666 -52.881046 -0.000001 -0.000002 -0.000001 3.769995 11.074702 -19.093292 0.000000 0.000000 0.000000 -80.238699 -18.402073 -30.381569 -59.729314 63.810072 56.438840 22.161724 22.494991 -18.508122 -13.517973 13.281426 -0.839664 9.540020 -37.919516 -3.541113 6.405229 -33.062098 -14.379771 -0.000002 0.000001 -0.000002 11.289810 3.880619 -9.945033 -0.299516 -0.129955 58.013865 0.000001 -0.000001 0.000001 5.507138 -9.351051 -11.108398 0.465973 -0.649713 50.784099 0.000001 0.000001 0.000000 5.176597 -18.778292 -5.863781 0.284157 -0.313262 61.589954 0.000001 0.000004 -0.000002 9.940341 -26.854695 10.500324 0.309554 -0.182911 78.639349 0.000000 0.000001 0.000001 -91.292855 -6.259636 22.790420 49.467129 -4.519150 -12.997496 21.668232 -7.466413 8.814150 -0.332168 0.925694 -0.305195 -0.000000 0.000003 -0.000000 -120.261982 1.262824 11.417621 118.636479 -11.026610 -2.624336 51.882151 1.196481 0.229229 -0.332320 -0.925738 0.305238 -0.000000 -0.000000 -0.000000 
-0.898121 137.694061 16.083265 4.764883 -20.677638 11.003432 31.894542 -6.838075 -10.613867 -0.846939 -1.225812 -2.282626 0.000000 0.000000 0.000000 -0.947543 -1.280956 -1.065722 -24.462879 7.530891 10.745749 16.255895 16.199320 -18.782564 0.000002 0.000000 -0.000000 9.913582 -27.228081 23.284591 0.000000 0.000000 0.000000 -55.741027 16.364884 11.372913 -102.459080 -71.986000 -83.327932 24.322526 9.290147 -10.411729 -4.193077 -7.551385 8.223959 2.837661 18.407213 -2.238129 5.142396 25.810073 13.251839 0.000001 -0.000001 -0.000000 13.552900 -2.392309 3.184916 -0.158796 0.311840 -41.077751 0.000002 -0.000001 0.000000 8.871426 -0.947736 -7.793589 0.330250 0.699899 -38.381261 -0.000001 -0.000003 -0.000001 6.419548 2.632743 -20.547439 0.070584 0.357292 -37.187262 -0.000000 0.000000 0.000001 -5.740883 7.329626 -19.078033 0.243624 0.295888 -52.280809 -0.000001 -0.000002 -0.000002 3.679110 13.977356 -16.002228 0.000000 0.000000 0.000000 -82.618276 -19.392434 -32.930528 -63.588815 64.803797 60.717274 25.040901 25.957292 -18.710087 -13.022059 12.669921 -1.171284 8.888046 -36.040371 -2.998074 6.205616 -30.619902 -13.395420 -0.000001 -0.000001 -0.000001 11.314043 4.196116 -10.256875 -0.288781 -0.126877 56.596652 -0.000001 0.000002 -0.000001 5.623076 -8.933871 -11.273144 0.452873 -0.655357 49.288407 0.000002 -0.000001 -0.000000 5.376710 -18.306159 -5.932436 0.273739 -0.313148 59.252663 -0.000000 -0.000001 -0.000002 9.678767 -26.201512 9.310108 0.298883 -0.192528 74.597113 0.000000 -0.000002 -0.000001 -87.792888 -6.850734 20.672949 46.961495 -2.048931 -12.224385 22.643257 -8.387295 8.186849 -0.332301 0.923169 -0.303766 -0.000000 0.000001 -0.000000 -115.277392 2.534430 10.278029 113.195509 -10.817914 -2.548703 48.854270 0.283122 4.486667 -0.332148 -0.923216 0.303741 -0.000001 -0.000001 0.000001 
-1.220703 137.088867 20.699720 4.371895 -21.194792 11.061727 30.031785 -6.608103 -10.144368 -0.381175 -1.474025 -3.165739 0.000000 0.000000 0.000000 0.072333 -1.341970 -1.344941 -23.223666 7.236258 11.847442 15.585269 17.092002 -19.533904 -0.000001 0.000000 -0.000001 7.385000 -26.512824 19.097305 0.000000 0.000000 0.000000 -54.763630 13.973013 11.692072 -104.918857 -71.854539 -85.983940 27.065553 8.031823 -11.809866 -4.178699 -7.553063 8.225200 2.835220 18.413422 -2.237707 5.135293 25.729410 13.217716 -0.000001 0.000000 0.000001 13.549796 -2.386591 3.713534 -0.158987 0.311399 -40.625719 -0.000001 0.000001 0.000000 8.870479 -0.948832 -7.156726 0.327965 0.697542 -37.848414 0.000000 0.000000 0.000002 6.420193 2.627489 -19.774895 0.068327 0.354283 -36.549080 0.000000 -0.000001 0.000000 -5.723426 7.317766 -18.104238 0.240385 0.293430 -51.502239 0.000000 0.000001 -0.000002 3.475395 16.714444 -13.717867 0.000000 0.000000 0.000000 -83.978890 -20.223608 -34.367118 -65.879490 65.349160 63.252442 25.627906 27.165979 -19.344002 -12.415426 11.909151 -1.566996 8.054724 -33.666163 -2.286266 5.885507 -27.479431 -12.141741 0.000002 0.000000 -0.000002 11.350863 4.607151 -10.663274 -0.274598 -0.123532 54.731945 -0.000001 -0.000001 0.000003 5.776155 -8.397307 -11.487055 0.435523 -0.661900 47.337931 -0.000000 -0.000001 0.000003 5.632288 -17.708860 -6.023639 0.260231 -0.312176 56.240358 -0.000001 -0.000003 0.000000 9.398102 -25.395629 7.846429 0.283657 -0.203098 69.473577 0.000000 0.000001 -0.000001 -83.901040 -8.086706 18.292602 43.430284 -1.551729 -11.445713 23.849368 -6.921345 6.568660 -0.332321 0.919742 -0.301656 -0.000000 -0.000000 -0.000000 -109.105524 3.800964 8.415101 106.888998 -11.295165 -2.495290 45.394913 -0.028590 7.912758 -0.332305 -0.919663 0.301663 0.000001 0.000001 0.000001 
-1.573101 136.271118 25.072557 3.945741 -21.888854 11.162565 27.766406 -5.981472 -9.550453 0.127463 -1.788175 -4.189705 0.000000 0.000000 0.000000 1.369449 -1.443078 -1.885276 -22.350411 6.904208 13.109456 15.336730 17.888909 -20.138130 0.000001 -0.000000 0.000000 5.147574 -25.541233 15.539836 0.000000 0.000000 0.000000 -53.331326 11.122287 11.352302 -100.821700 -72.171289 -81.786700 28.052294 5.321960 -10.993647 -4.160498 -7.555270 8.226782 2.831889 18.420797 -2.237267 5.126757 25.632778 13.176879 0.000000 0.000003 0.000003 13.546557 -2.379847 4.351946 -0.159247 0.310860 -40.075735 0.000001 0.000001 0.000000 8.869268 -0.950652 -6.394249 0.325245 0.694684 -37.204676 0.000001 0.000000 0.000001 6.420362 2.621689 -18.861082 0.065641 0.350562 -35.784980 0.000001 -0.000002 -0.000001 -5.707917 7.306884 -16.970816 0.236678 0.290549 -50.581126 -0.000001 0.000001 -0.000003 3.512211 19.269000 -12.925305 0.000000 0.000000 0.000000 -84.968892 -22.266246 -34.717831 -67.982574 65.843106 65.579324 24.567700 26.424783 -20.163822 -11.746954 11.054946 -1.989553 7.083466 -30.945603 -1.434295 5.424421 -23.803230 -10.680131 -0.000002 0.000000 -0.000000 11.402625 5.096135 -11.147012 -0.257867 -0.120611 52.488597 -0.000000 -0.000000 -0.000001 5.961284 -7.768819 -11.740527 0.414449 -0.668196 45.015072 -0.000001 0.000000 0.000001 5.929326 -17.023104 -6.134465 0.244213 -0.309842 52.703024 0.000000 0.000002 -0.000000 9.139971 -24.501398 6.223543 0.264018 -0.212763 63.577586 0.000000 0.000002 0.000000 -79.516509 -9.899702 15.991064 39.375245 0.600573 -10.329994 25.643710 -6.815096 5.147465 -0.332529 0.915230 -0.299207 -0.000000 -0.000001 -0.000001 -102.419001 4.473247 5.807343 99.992965 -11.474638 -2.407851 42.013549 -0.518157 10.943881 -0.332330 -0.915365 0.299173 0.000001 -0.000001 0.000001 
